# WaveFront *.obj file (generated by Cinema 4D)

mtllib ./base.mtl

v -1.753983 -1.326387 1.524780
v -1.753983 2.196878 1.524780
v 1.769282 -1.326387 1.524780
v 1.769282 2.196878 1.524780
v 1.769282 -1.326387 -1.998485
v 1.769282 2.196878 -1.998485
v -1.753983 -1.326387 -1.998485
v -1.753983 2.196878 -1.998485
# 8 vertices

vn 0.000000 1.000000 0.000000
vn 0.000000 1.000000 0.000000
vn 0.000000 -1.000000 0.000000
vn 0.000000 0.000000 1.000000
# 4 normals

vt 0.000000 0.000000 0.000000
vt 1.000000 0.000000 0.000000
vt 1.000000 1.000000 0.000000
vt 0.000000 1.000000 0.000000
# 4 texture coordinates

o base
usemtl default
f 3/3/1 5/2/2 7/1/1
f 8/4/3 6/3/3 2/1/3
f 8/3/4 7/2/4 5/1/4
f 6/4/4 8/3/4 5/1/4
f 6/3/3 4/2/3 2/1/3
f 1/4/1 3/3/1 7/1/1

