# WaveFront *.obj file (generated by Cinema 4D)

mtllib ./leftCube.mtl

v -1.384840 -1.321491 -1.089683
v -1.384840 0.807881 -1.089683
v -0.872432 -1.321491 -0.347414
v -0.872432 0.807881 -0.347414
v -0.130164 -1.321491 -0.859822
v -0.130164 0.807881 -0.859822
v -0.642571 -1.321491 -1.602090
v -0.642571 0.807881 -1.602090
# 8 vertices

vn -0.822955 0.000000 0.568107
vn -0.822955 0.000000 0.568107
vn 0.568107 0.000000 0.822955
vn 0.568107 0.000000 0.822955
vn 0.822955 0.000000 -0.568107
vn 0.822955 0.000000 -0.568107
vn -0.568107 0.000000 -0.822955
vn -0.568107 0.000000 -0.822955
vn 0.000000 1.000000 0.000000
vn 0.000000 1.000000 0.000000
vn 0.000000 -1.000000 0.000000
vn 0.822955 0.000000 -0.568107
vn 0.000000 -1.000000 0.000000
# 13 normals

vt 0.000000 0.000000 0.000000
vt 0.000000 1.000000 0.000000
vt 1.000000 1.000000 0.000000
vt 1.000000 0.000000 0.000000
# 4 texture coordinates

o leftCube
usemtl default
f 4/3/1 2/2/2 1/1/1
f 6/3/3 4/2/4 3/1/3
f 8/3/5 6/2/6 5/1/5
f 2/3/7 8/2/8 7/1/7
f 6/3/9 8/2/10 2/1/9
f 3/3/11 1/2/11 7/1/11
f 3/4/2 4/3/1 1/1/1
f 5/4/4 6/3/3 3/1/3
f 7/4/12 8/3/5 5/1/5
f 1/4/8 2/3/7 7/1/7
f 4/4/9 6/3/9 2/1/9
f 5/4/13 3/3/11 7/1/11

