# WaveFront *.obj file (generated by Cinema 4D)

mtllib ./rightCube.mtl

v 0.089720 -1.321447 0.321619
v 0.089720 -0.419492 0.321619
v 0.754468 -1.321447 0.931236
v 0.754468 -0.419492 0.931236
v 1.364086 -1.321447 0.266487
v 1.364086 -0.419492 0.266487
v 0.699337 -1.321447 -0.343130
v 0.699337 -0.419492 -0.343130
# 8 vertices

vn -0.675884 0.000000 0.737008
vn 0.737008 0.000000 0.675884
vn 0.675884 0.000000 -0.737008
vn 0.675884 0.000000 -0.737008
vn -0.737008 0.000000 -0.675884
vn -0.737008 0.000000 -0.675884
vn 0.000000 1.000000 0.000000
vn 0.000000 -1.000000 0.000000
vn 0.000000 -1.000000 0.000000
vn 0.675884 0.000000 -0.737008
vn 0.000000 1.000000 0.000000
# 11 normals

vt 0.000000 0.000000 0.000000
vt 0.000000 1.000000 0.000000
vt 1.000000 1.000000 0.000000
vt 1.000000 0.000000 0.000000
# 4 texture coordinates

o rightCube
usemtl default
f 4/3/1 2/2/1 1/1/1
f 6/3/2 4/2/2 3/1/2
f 8/3/3 6/2/4 5/1/3
f 2/3/5 8/2/6 7/1/5
f 6/3/7 8/2/7 2/1/7
f 3/3/8 1/2/9 7/1/8
f 3/4/1 4/3/1 1/1/1
f 5/4/2 6/3/2 3/1/2
f 7/4/10 8/3/3 5/1/3
f 1/4/6 2/3/5 7/1/5
f 4/4/11 6/3/7 2/1/7
f 5/4/8 3/3/8 7/1/8

