# WaveFront *.obj file (generated by Cinema 4D)

mtllib ./Cube_2.mtl

v 0.410326 0.003913 0.860782
v 0.410326 0.628713 0.860782
v 0.493767 0.003913 0.815786
v 0.493767 0.628713 0.815786
v -0.410326 0.003913 -0.860782
v -0.410326 0.628713 -0.860782
v -0.493767 0.003913 -0.815786
v -0.493767 0.628713 -0.815786
# 8 vertices

vn 0.474639 0.000000 0.880181
vn 0.474639 0.000000 0.880180
vn 0.880180 0.000000 -0.474639
vn 0.880180 0.000000 -0.474639
vn -0.474639 0.000000 -0.880181
vn -0.474639 0.000000 -0.880180
vn -0.880180 0.000000 0.474639
vn 0.000000 1.000000 0.000000
vn 0.000000 -1.000000 0.000000
vn 0.000000 1.000000 0.000000
# 10 normals

vt 0.000000 0.000000 0.000000
vt 0.000000 1.000000 0.000000
vt 1.000000 1.000000 0.000000
vt 1.000000 0.000000 0.000000
# 4 texture coordinates

o Cube_2
usemtl default
f 4/3/1 2/2/2 1/1/1
f 6/3/3 4/2/4 3/1/3
f 8/3/5 6/2/6 5/1/5
f 2/3/7 8/2/7 7/1/7
f 6/3/8 8/2/8 2/1/8
f 3/3/9 1/2/9 7/1/9
f 3/4/2 4/3/1 1/1/1
f 5/4/3 6/3/3 3/1/3
f 7/4/6 8/3/5 5/1/5
f 1/4/7 2/3/7 7/1/7
f 4/4/10 6/3/8 2/1/8
f 5/4/9 3/3/9 7/1/9

