# WaveFront *.obj file (generated by Cinema 4D)

mtllib ./Pyramid.mtl

v 0.718558 0.006732 0.295466
v 1.309490 0.006732 0.295466
v 1.309490 0.006732 -0.295466
v 0.718558 0.006732 -0.295466
v 1.014024 0.597664 0.000000
# 5 vertices

vn 0.000000 -1.000000 0.000000
vn 0.894427 0.447214 0.000000
vn 0.000000 0.447214 -0.894427
vn -0.894427 0.447214 0.000000
vn 0.000000 0.447214 0.894427
# 5 normals

vt 0.200000 0.500000 0.000000
vt 0.500000 0.800000 0.000000
vt 0.800000 0.500000 0.000000
vt 0.000000 1.000000 0.000000
vt 1.000000 1.000000 0.000000
vt 1.000000 0.000000 0.000000
vt 0.500000 0.200000 0.000000
vt 0.000000 0.000000 0.000000
# 8 texture coordinates

o Pyramid
usemtl default
f 3/3/1 2/2/1 1/1/1
f 2/2/2 3/3/2 5/5/2
f 3/3/3 4/7/3 5/6/3
f 4/7/4 1/1/4 5/8/4
f 1/1/5 2/2/5 5/4/5
f 4/7/1 3/3/1 1/1/1

