# WaveFront *.obj file (generated by Cinema 4D)

mtllib ./Sphere.mtl

v 0.000000 0.647991 0.246689
v 0.000000 0.343067 0.246689
v 0.246689 0.495529 0.152462
v 0.246689 0.495529 -0.152462
v 0.000000 0.647991 -0.246689
v 0.000000 0.343067 -0.246689
v -0.246689 0.495529 -0.152462
v -0.246689 0.495529 0.152462
v 0.152462 0.742217 0.000000
v -0.152462 0.742217 0.000000
v -0.152462 0.248840 0.000000
v 0.152462 0.248840 0.000000
v 0.058514 0.779564 0.000000
v -0.058514 0.779564 0.000000
v 0.058514 0.707236 0.189357
v 0.117029 0.743400 0.094678
v -0.058514 0.707236 0.189357
v -0.117029 0.743400 0.094678
v 0.247871 0.590207 0.117029
v 0.211707 0.684886 0.058514
v 0.094678 0.612558 0.247871
v 0.189357 0.554043 0.211707
v 0.247871 0.590207 -0.117029
v 0.211707 0.684886 -0.058514
v 0.284035 0.495529 0.058514
v 0.284035 0.495529 -0.058514
v 0.058514 0.707236 -0.189357
v 0.117029 0.743400 -0.094678
v 0.189357 0.554043 -0.211707
v 0.094678 0.612558 -0.247871
v -0.058514 0.707236 -0.189357
v -0.117029 0.743400 -0.094678
v -0.247871 0.590207 -0.117029
v -0.211707 0.684886 -0.058514
v -0.094678 0.612558 -0.247871
v -0.189357 0.554043 -0.211707
v -0.247871 0.590207 0.117029
v -0.211707 0.684886 0.058514
v -0.284035 0.495529 -0.058514
v -0.284035 0.495529 0.058514
v -0.094678 0.612558 0.247871
v -0.189357 0.554043 0.211707
v -0.058514 0.211493 0.000000
v 0.058514 0.211493 0.000000
v -0.058514 0.283821 0.189357
v -0.117029 0.247657 0.094678
v 0.058514 0.283821 0.189357
v 0.117029 0.247657 0.094678
v 0.247871 0.400850 0.117029
v 0.211707 0.306172 0.058514
v 0.094678 0.378500 0.247871
v 0.189357 0.437014 0.211707
v 0.247871 0.400850 -0.117029
v 0.211707 0.306172 -0.058514
v 0.189357 0.437014 -0.211707
v 0.094678 0.378500 -0.247871
v 0.058514 0.283821 -0.189357
v 0.117029 0.247657 -0.094678
v -0.058514 0.283821 -0.189357
v -0.117029 0.247657 -0.094678
v -0.094678 0.378500 -0.247871
v -0.189357 0.437014 -0.211707
v -0.247871 0.400850 -0.117029
v -0.211707 0.306172 -0.058514
v -0.247871 0.400850 0.117029
v -0.211707 0.306172 0.058514
v -0.094678 0.378500 0.247871
v -0.189357 0.437014 0.211707
v 0.000000 0.554043 0.284035
v 0.000000 0.437014 0.284035
v 0.000000 0.554043 -0.284035
v 0.000000 0.437014 -0.284035
v 0.000000 0.766439 0.103478
v 0.167432 0.662960 0.167432
v 0.270910 0.599007 0.000000
v 0.167432 0.662960 -0.167432
v 0.000000 0.766439 -0.103478
v -0.167432 0.662960 -0.167432
v -0.270910 0.599007 0.000000
v -0.167432 0.662960 0.167432
v 0.000000 0.224619 0.103478
v 0.167432 0.328097 0.167432
v 0.270910 0.392050 0.000000
v 0.167432 0.328097 -0.167432
v 0.000000 0.224619 -0.103478
v -0.167432 0.328097 -0.167432
v -0.270910 0.392050 0.000000
v -0.167432 0.328097 0.167432
v -0.103478 0.495529 0.270910
v 0.103478 0.495529 0.270910
v 0.103478 0.495529 -0.270910
v -0.103478 0.495529 -0.270910
# 92 vertices

vn -0.525731 0.850651 -0.000000
vn -0.195614 0.980681 0.000000
vn -0.400854 0.853836 0.332086
vn 0.195614 0.980681 0.000000
vn -0.000000 0.934172 0.356822
vn -0.205240 0.732939 0.648596
vn 0.525731 0.850651 0.000000
vn 0.400854 0.853836 0.332086
vn 0.205240 0.732939 0.648596
vn -0.000000 0.525731 0.850651
vn 0.732940 0.648596 0.205240
vn 0.853836 0.332085 0.400854
vn 0.577350 0.577350 0.577350
vn 0.850651 0.000000 0.525731
vn 0.648596 0.205240 0.732939
vn 0.332085 0.400854 0.853836
vn 0.732940 0.648595 -0.205240
vn 0.853836 0.332085 -0.400854
vn 0.934172 0.356822 0.000000
vn 0.850651 -0.000000 -0.525731
vn 0.980681 -0.000000 -0.195614
vn 0.980681 -0.000000 0.195614
vn 0.400854 0.853836 -0.332086
vn 0.205240 0.732939 -0.648596
vn 0.577350 0.577350 -0.577350
vn -0.000000 0.525731 -0.850651
vn 0.332085 0.400854 -0.853836
vn 0.648596 0.205240 -0.732939
vn 0.000000 0.934172 -0.356822
vn -0.400854 0.853836 -0.332085
vn -0.205240 0.732939 -0.648596
vn -0.332085 0.400854 -0.853836
vn -0.577350 0.577350 -0.577350
vn -0.648596 0.205240 -0.732939
vn -0.732940 0.648596 -0.205240
vn -0.853836 0.332085 -0.400854
vn -0.850651 -0.000000 -0.525731
vn -0.980681 -0.000000 -0.195614
vn -0.934172 0.356822 -0.000000
vn -0.980681 -0.000000 0.195614
vn -0.732940 0.648595 0.205240
vn -0.853836 0.332085 0.400854
vn -0.850651 0.000000 0.525731
vn -0.577350 0.577350 0.577350
vn -0.332085 0.400854 0.853836
vn -0.648596 0.205240 0.732939
vn 0.525731 -0.850651 0.000000
vn 0.195614 -0.980681 0.000000
vn 0.400854 -0.853836 0.332085
vn -0.195614 -0.980681 0.000000
vn 0.000000 -0.934172 0.356822
vn 0.205240 -0.732939 0.648596
vn -0.525731 -0.850651 0.000000
vn -0.400854 -0.853836 0.332085
vn -0.205240 -0.732939 0.648596
vn 0.000000 -0.525731 0.850651
vn 0.853836 -0.332085 0.400854
vn 0.648596 -0.205240 0.732939
vn 0.732939 -0.648596 0.205240
vn 0.577350 -0.577350 0.577350
vn 0.332085 -0.400854 0.853836
vn 0.934172 -0.356822 0.000000
vn 0.853836 -0.332085 -0.400854
vn 0.732939 -0.648596 -0.205240
vn 0.648596 -0.205240 -0.732939
vn 0.332085 -0.400854 -0.853836
vn 0.577350 -0.577350 -0.577350
vn 0.000000 -0.525731 -0.850651
vn 0.205240 -0.732939 -0.648596
vn 0.400854 -0.853836 -0.332085
vn -0.205240 -0.732939 -0.648596
vn -0.400854 -0.853836 -0.332085
vn 0.000000 -0.934172 -0.356822
vn -0.332085 -0.400854 -0.853836
vn -0.648596 -0.205240 -0.732939
vn -0.577350 -0.577350 -0.577350
vn -0.853836 -0.332085 -0.400854
vn -0.732939 -0.648596 -0.205240
vn -0.934172 -0.356822 -0.000000
vn -0.853836 -0.332085 0.400854
vn -0.732939 -0.648596 0.205240
vn -0.648596 -0.205240 0.732939
vn -0.332085 -0.400854 0.853836
vn -0.577350 -0.577350 0.577350
vn 0.000000 -0.195614 0.980681
vn -0.356822 -0.000000 0.934172
vn -0.000000 0.195614 0.980681
vn 0.356822 -0.000000 0.934172
vn 0.000000 0.195614 -0.980681
vn 0.000000 -0.195614 -0.980681
vn 0.356822 -0.000000 -0.934172
vn -0.356822 -0.000000 -0.934172
# 92 normals

vt 0.700000 0.307000 0.000000
vt 0.666667 0.249333 0.000000
vt 0.633333 0.307000 0.000000
vt 0.000000 1.000000 0.000000
vt 0.633333 0.191667 0.000000
vt 0.600000 0.249333 0.000000
vt 0.566667 0.307000 0.000000
vt 0.600000 0.134000 0.000000
vt 0.566667 0.191667 0.000000
vt 0.533333 0.249333 0.000000
vt 0.500000 0.307000 0.000000
vt 0.533333 0.134000 0.000000
vt 0.466667 0.134000 0.000000
vt 0.500000 0.191667 0.000000
vt 0.400000 0.134000 0.000000
vt 0.433333 0.191667 0.000000
vt 0.466667 0.249333 0.000000
vt 0.100000 1.000000 0.000000
vt 0.133333 0.942333 0.000000
vt 0.066667 0.942333 0.000000
vt 0.166667 0.884667 0.000000
vt 0.100000 0.884667 0.000000
vt 0.033333 0.884667 0.000000
vt 0.200000 0.827000 0.000000
vt 0.133333 0.827000 0.000000
vt 0.066667 0.827000 0.000000
vt 0.000000 0.827000 0.000000
vt 0.166667 1.000000 0.000000
vt 0.233333 1.000000 0.000000
vt 0.200000 0.942333 0.000000
vt 0.300000 1.000000 0.000000
vt 0.266667 0.942333 0.000000
vt 0.233333 0.884667 0.000000
vt 1.000000 0.480000 0.000000
vt 0.933333 0.480000 0.000000
vt 0.966667 0.537667 0.000000
vt 0.866667 0.480000 0.000000
vt 0.900000 0.537667 0.000000
vt 0.933333 0.595333 0.000000
vt 0.800000 0.480000 0.000000
vt 0.833333 0.537667 0.000000
vt 0.866667 0.595333 0.000000
vt 0.900000 0.653000 0.000000
vt 0.833333 0.653000 0.000000
vt 0.800000 0.595333 0.000000
vt 0.766667 0.653000 0.000000
vt 0.766667 0.537667 0.000000
vt 0.733333 0.595333 0.000000
vt 0.700000 0.653000 0.000000
vt 0.666667 0.595333 0.000000
vt 0.700000 0.537667 0.000000
vt 0.633333 0.537667 0.000000
vt 0.733333 0.480000 0.000000
vt 0.666667 0.480000 0.000000
vt 0.600000 0.480000 0.000000
vt 0.666667 0.364667 0.000000
vt 0.600000 0.364667 0.000000
vt 0.633333 0.422333 0.000000
vt 0.533333 0.364667 0.000000
vt 0.566667 0.422333 0.000000
vt 0.300000 0.653000 0.000000
vt 0.366667 0.653000 0.000000
vt 0.333333 0.595333 0.000000
vt 0.433333 0.653000 0.000000
vt 0.400000 0.595333 0.000000
vt 0.366667 0.537667 0.000000
vt 0.500000 0.653000 0.000000
vt 0.466667 0.595333 0.000000
vt 0.433333 0.537667 0.000000
vt 0.400000 0.480000 0.000000
vt 0.300000 0.307000 0.000000
vt 0.266667 0.364667 0.000000
vt 0.333333 0.364667 0.000000
vt 0.233333 0.422333 0.000000
vt 0.300000 0.422333 0.000000
vt 0.366667 0.422333 0.000000
vt 0.200000 0.480000 0.000000
vt 0.266667 0.480000 0.000000
vt 0.333333 0.480000 0.000000
vt 0.100000 0.654000 0.000000
vt 0.133333 0.711667 0.000000
vt 0.166667 0.653667 0.000000
vt 0.166667 0.769333 0.000000
vt 0.200000 0.711333 0.000000
vt 0.233333 0.653333 0.000000
vt 0.233333 0.769000 0.000000
vt 0.266667 0.711000 0.000000
vt 0.266667 0.827000 0.000000
vt 0.333333 0.827000 0.000000
vt 0.300000 0.769000 0.000000
vt 0.400000 0.827000 0.000000
vt 0.366667 0.769000 0.000000
vt 0.333333 0.711000 0.000000
vt 0.433333 0.769000 0.000000
vt 0.466667 0.711000 0.000000
vt 0.400000 0.711000 0.000000
vt 0.433333 0.884667 0.000000
vt 0.466667 0.827000 0.000000
vt 0.466667 0.942333 0.000000
vt 0.500000 0.884667 0.000000
vt 0.533333 0.827000 0.000000
vt 0.500000 1.000000 0.000000
vt 0.533333 0.942333 0.000000
vt 0.566667 0.884667 0.000000
vt 0.600000 0.827000 0.000000
vt 0.633333 0.653000 0.000000
vt 0.600000 0.595333 0.000000
vt 0.566667 0.653000 0.000000
vt 0.566667 0.537667 0.000000
vt 0.533333 0.595333 0.000000
vt 0.533333 0.480000 0.000000
vt 0.466667 0.480000 0.000000
vt 0.500000 0.537667 0.000000
vt 0.433333 0.422333 0.000000
vt 0.500000 0.422333 0.000000
vt 0.466667 0.364667 0.000000
vt 0.366667 0.307000 0.000000
vt 0.400000 0.364667 0.000000
vt 0.433333 0.307000 0.000000
vt 0.333333 0.942333 0.000000
vt 0.366667 0.884667 0.000000
vt 0.300000 0.884667 0.000000
vt 0.366667 1.000000 0.000000
vt 0.433333 1.000000 0.000000
vt 0.400000 0.942333 0.000000
# 125 texture coordinates

o Sphere
usemtl default
f 18/3/3 14/2/2 10/1/1
f 73/6/5 13/5/4 14/2/2
f 14/2/2 18/3/3 73/6/5
f 17/7/6 73/6/5 18/3/3
f 16/9/8 9/8/7 13/5/4
f 13/5/4 73/6/5 16/9/8
f 15/10/9 16/9/8 73/6/5
f 73/6/5 17/7/6 15/10/9
f 1/11/10 15/10/9 17/7/6
f 16/9/8 20/12/11 9/8/7
f 74/14/13 19/13/12 20/12/11
f 20/12/11 16/9/8 74/14/13
f 15/10/9 74/14/13 16/9/8
f 22/16/15 3/15/14 19/13/12
f 19/13/12 74/14/13 22/16/15
f 21/17/16 22/16/15 74/14/13
f 74/14/13 15/10/9 21/17/16
f 1/11/10 21/17/16 15/10/9
f 20/20/11 24/19/17 9/18/7
f 75/22/19 23/21/18 24/19/17
f 24/19/17 20/20/11 75/22/19
f 19/23/12 75/22/19 20/20/11
f 26/25/21 4/24/20 23/21/18
f 23/21/18 75/22/19 26/25/21
f 25/26/22 26/25/21 75/22/19
f 75/22/19 19/23/12 25/26/22
f 3/27/14 25/26/22 19/23/12
f 24/19/17 28/28/23 9/18/7
f 76/30/25 27/29/24 28/28/23
f 28/28/23 24/19/17 76/30/25
f 23/21/18 76/30/25 24/19/17
f 30/32/27 5/31/26 27/29/24
f 27/29/24 76/30/25 30/32/27
f 29/33/28 30/32/27 76/30/25
f 76/30/25 23/21/18 29/33/28
f 4/24/20 29/33/28 23/21/18
f 28/36/23 13/35/4 9/34/7
f 77/38/29 14/37/2 13/35/4
f 13/35/4 28/36/23 77/38/29
f 27/39/24 77/38/29 28/36/23
f 32/41/30 10/40/1 14/37/2
f 14/37/2 77/38/29 32/41/30
f 31/42/31 32/41/30 77/38/29
f 77/38/29 27/39/24 31/42/31
f 5/43/26 31/42/31 27/39/24
f 35/44/32 31/42/31 5/43/26
f 78/45/33 32/41/30 31/42/31
f 31/42/31 35/44/32 78/45/33
f 36/46/34 78/45/33 35/44/32
f 34/47/35 10/40/1 32/41/30
f 32/41/30 78/45/33 34/47/35
f 33/48/36 34/47/35 78/45/33
f 78/45/33 36/46/34 33/48/36
f 7/49/37 33/48/36 36/46/34
f 39/50/38 33/48/36 7/49/37
f 79/51/39 34/47/35 33/48/36
f 33/48/36 39/50/38 79/51/39
f 40/52/40 79/51/39 39/50/38
f 38/53/41 10/40/1 34/47/35
f 34/47/35 79/51/39 38/53/41
f 37/54/42 38/53/41 79/51/39
f 79/51/39 40/52/40 37/54/42
f 8/55/43 37/54/42 40/52/40
f 38/56/41 18/3/3 10/1/1
f 80/57/44 17/7/6 18/3/3
f 18/3/3 38/56/41 80/57/44
f 37/58/42 80/57/44 38/56/41
f 41/59/45 1/11/10 17/7/6
f 17/7/6 80/57/44 41/59/45
f 42/60/46 41/59/45 80/57/44
f 80/57/44 37/58/42 42/60/46
f 8/55/43 42/60/46 37/58/42
f 48/63/49 44/62/48 12/61/47
f 81/65/51 43/64/50 44/62/48
f 44/62/48 48/63/49 81/65/51
f 47/66/52 81/65/51 48/63/49
f 46/68/54 11/67/53 43/64/50
f 43/64/50 81/65/51 46/68/54
f 45/69/55 46/68/54 81/65/51
f 81/65/51 47/66/52 45/69/55
f 2/70/56 45/69/55 47/66/52
f 52/73/58 49/72/57 3/71/14
f 82/75/60 50/74/59 49/72/57
f 49/72/57 52/73/58 82/75/60
f 51/76/61 82/75/60 52/73/58
f 48/78/49 12/77/47 50/74/59
f 50/74/59 82/75/60 48/78/49
f 47/79/52 48/78/49 82/75/60
f 82/75/60 51/76/61 47/79/52
f 2/70/56 47/79/52 51/76/61
f 49/82/57 25/81/22 3/80/14
f 83/84/62 26/83/21 25/81/22
f 25/81/22 49/82/57 83/84/62
f 50/85/59 83/84/62 49/82/57
f 53/86/63 4/24/20 26/83/21
f 26/83/21 83/84/62 53/86/63
f 54/87/64 53/86/63 83/84/62
f 83/84/62 50/85/59 54/87/64
f 12/61/47 54/87/64 50/85/59
f 53/86/63 55/88/65 4/24/20
f 84/90/67 56/89/66 55/88/65
f 55/88/65 53/86/63 84/90/67
f 54/87/64 84/90/67 53/86/63
f 57/92/69 6/91/68 56/89/66
f 56/89/66 84/90/67 57/92/69
f 58/93/70 57/92/69 84/90/67
f 84/90/67 54/87/64 58/93/70
f 12/61/47 58/93/70 54/87/64
f 57/92/69 59/94/71 6/91/68
f 85/96/73 60/95/72 59/94/71
f 59/94/71 57/92/69 85/96/73
f 58/93/70 85/96/73 57/92/69
f 43/64/50 11/67/53 60/95/72
f 60/95/72 85/96/73 43/64/50
f 44/62/48 43/64/50 85/96/73
f 85/96/73 58/93/70 44/62/48
f 12/61/47 44/62/48 58/93/70
f 59/98/71 61/97/74 6/91/68
f 86/100/76 62/99/75 61/97/74
f 61/97/74 59/98/71 86/100/76
f 60/101/72 86/100/76 59/98/71
f 63/103/77 7/102/37 62/99/75
f 62/99/75 86/100/76 63/103/77
f 64/104/78 63/103/77 86/100/76
f 86/100/76 60/101/72 64/104/78
f 11/105/53 64/104/78 60/101/72
f 63/106/77 39/50/38 7/49/37
f 87/107/79 40/52/40 39/50/38
f 39/50/38 63/106/77 87/107/79
f 64/108/78 87/107/79 63/106/77
f 65/109/80 8/55/43 40/52/40
f 40/52/40 87/107/79 65/109/80
f 66/110/81 65/109/80 87/107/79
f 87/107/79 64/108/78 66/110/81
f 11/67/53 66/110/81 64/108/78
f 65/109/80 68/111/82 8/55/43
f 88/113/84 67/112/83 68/111/82
f 68/111/82 65/109/80 88/113/84
f 66/110/81 88/113/84 65/109/80
f 45/69/55 2/70/56 67/112/83
f 67/112/83 88/113/84 45/69/55
f 46/68/54 45/69/55 88/113/84
f 88/113/84 66/110/81 46/68/54
f 11/67/53 46/68/54 66/110/81
f 70/114/85 67/112/83 2/70/56
f 89/115/86 68/111/82 67/112/83
f 67/112/83 70/114/85 89/115/86
f 69/116/87 89/115/86 70/114/85
f 42/60/46 8/55/43 68/111/82
f 68/111/82 89/115/86 42/60/46
f 41/59/45 42/60/46 89/115/86
f 89/115/86 69/116/87 41/59/45
f 1/11/10 41/59/45 69/116/87
f 22/117/15 52/73/58 3/71/14
f 90/118/88 51/76/61 52/73/58
f 52/73/58 22/117/15 90/118/88
f 21/119/16 90/118/88 22/117/15
f 70/114/85 2/70/56 51/76/61
f 51/76/61 90/118/88 70/114/85
f 69/116/87 70/114/85 90/118/88
f 90/118/88 21/119/16 69/116/87
f 1/11/10 69/116/87 21/119/16
f 30/32/27 71/120/89 5/31/26
f 91/122/91 72/121/90 71/120/89
f 71/120/89 30/32/27 91/122/91
f 29/33/28 91/122/91 30/32/27
f 56/89/66 6/91/68 72/121/90
f 72/121/90 91/122/91 56/89/66
f 55/88/65 56/89/66 91/122/91
f 91/122/91 29/33/28 55/88/65
f 4/24/20 55/88/65 29/33/28
f 71/120/89 35/123/32 5/31/26
f 92/125/92 36/124/34 35/123/32
f 35/123/32 71/120/89 92/125/92
f 72/121/90 92/125/92 71/120/89
f 62/99/75 7/102/37 36/124/34
f 36/124/34 92/125/92 62/99/75
f 61/97/74 62/99/75 92/125/92
f 92/125/92 72/121/90 61/97/74
f 6/91/68 61/97/74 72/121/90

