# WaveFront *.obj file (generated by Cinema 4D)

mtllib ./ceiling.mtl

v 11.712450 7.495299 9.728343
v 11.712450 0.179656 9.728343
v 11.712450 0.179656 -7.983150
v 11.712450 7.495299 -7.983150
v -8.844597 8.020500 8.000191
v -8.844597 8.020500 -6.254997
v 8.866896 8.020500 -6.254997
v 8.866896 8.020500 8.000191
# 8 vertices

vn -1.000000 0.000000 0.000000
vn 0.000000 1.000000 0.000000
# 2 normals

vt 0.000000 0.000000 0.000000
vt 0.000000 1.000000 0.000000
vt 1.000000 1.000000 0.000000
vt 1.000000 0.000000 0.000000
# 4 texture coordinates

o ceiling.1
usemtl default
f 3/3/1 2/2/1 1/1/1
f 4/4/1 3/3/1 1/1/1
f 7/3/2 6/2/2 5/1/2
f 8/4/2 7/3/2 5/1/2

