# WaveFront *.obj file (generated by Cinema 4D)

mtllib ./Cloner.mtl

v -9.637530 0.001129 9.489676
v -9.637530 0.443129 9.489676
v -9.351264 0.001129 9.826449
v -9.351264 0.443129 9.826449
v -9.014491 0.001129 9.540183
v -9.014491 0.443129 9.540183
v -9.300757 0.001129 9.203410
v -9.300757 0.443129 9.203410
v -8.860362 0.001129 8.829062
v -8.860362 0.443129 8.829062
v -8.574096 0.001129 9.165835
v -8.574096 0.443129 9.165835
v -8.237324 0.001129 8.879569
v -8.237324 0.443129 8.879569
v -8.523590 0.001129 8.542796
v -8.523590 0.443129 8.542796
v -8.083195 0.001129 8.168449
v -8.083195 0.443129 8.168449
v -7.796929 0.001129 8.505221
v -7.796929 0.443129 8.505221
v -7.460156 0.001129 8.218955
v -7.460156 0.443129 8.218955
v -7.746422 0.001129 7.882183
v -7.746422 0.443129 7.882183
v -7.306027 0.001129 7.507835
v -7.306027 0.443129 7.507835
v -7.019761 0.001129 7.844607
v -7.019761 0.443129 7.844607
v -6.682988 0.001129 7.558341
v -6.682988 0.443129 7.558341
v -6.969254 0.001129 7.221569
v -6.969254 0.443129 7.221569
v -6.528860 0.001129 6.847221
v -6.528860 0.443129 6.847221
v -6.242594 0.001129 7.183994
v -6.242594 0.443129 7.183994
v -5.905821 0.001129 6.897728
v -5.905821 0.443129 6.897728
v -6.192087 0.001129 6.560955
v -6.192087 0.443129 6.560955
v -5.751692 0.001129 6.186607
v -5.751692 0.443129 6.186607
v -5.465426 0.001129 6.523380
v -5.465426 0.443129 6.523380
v -5.128653 0.001129 6.237114
v -5.128653 0.443129 6.237114
v -5.414919 0.001129 5.900341
v -5.414919 0.443129 5.900341
v -4.974524 0.001129 5.525993
v -4.974524 0.443129 5.525993
v -4.688258 0.001129 5.862766
v -4.688258 0.443129 5.862766
v -4.351486 0.001129 5.576500
v -4.351486 0.443129 5.576500
v -4.637752 0.001129 5.239727
v -4.637752 0.443129 5.239727
v -4.197357 0.001129 4.865379
v -4.197357 0.443129 4.865379
v -3.911091 0.001129 5.202152
v -3.911091 0.443129 5.202152
v -3.574318 0.001129 4.915886
v -3.574318 0.443129 4.915886
v -3.860584 0.001129 4.579113
v -3.860584 0.443129 4.579113
v -3.420189 0.001129 4.204766
v -3.420189 0.443129 4.204766
v -3.133923 0.001129 4.541538
v -3.133923 0.443129 4.541538
v -2.797151 0.001129 4.255272
v -2.797151 0.443129 4.255272
v -3.083417 0.001129 3.918500
v -3.083417 0.443129 3.918500
v -2.643022 0.001129 3.544152
v -2.643022 0.443129 3.544152
v -2.356756 0.001129 3.880924
v -2.356756 0.443129 3.880924
v -2.019983 0.001129 3.594658
v -2.019983 0.443129 3.594658
v -2.306249 0.001129 3.257886
v -2.306249 0.443129 3.257886
v -1.865854 0.001129 2.883538
v -1.865854 0.443129 2.883538
v -1.579588 0.001129 3.220311
v -1.579588 0.443129 3.220311
v -1.242816 0.001129 2.934045
v -1.242816 0.443129 2.934045
v -1.529082 0.001129 2.597272
v -1.529082 0.443129 2.597272
v -1.088687 0.001129 2.222924
v -1.088687 0.443129 2.222924
v -0.802421 0.001129 2.559697
v -0.802421 0.443129 2.559697
v -0.465648 0.001129 2.273431
v -0.465648 0.443129 2.273431
v -0.751914 0.001129 1.936658
v -0.751914 0.443129 1.936658
v -0.311519 0.001129 1.562310
v -0.311519 0.443129 1.562310
v -0.025253 0.001129 1.899083
v -0.025253 0.443129 1.899083
v 0.311519 0.001129 1.612817
v 0.311519 0.443129 1.612817
v 0.025253 0.001129 1.276044
v 0.025253 0.443129 1.276044
v 0.465648 0.001129 0.901697
v 0.465648 0.443129 0.901697
v 0.751914 0.001129 1.238469
v 0.751914 0.443129 1.238469
v 1.088687 0.001129 0.952203
v 1.088687 0.443129 0.952203
v 0.802421 0.001129 0.615431
v 0.802421 0.443129 0.615431
v 1.242816 0.001129 0.241083
v 1.242816 0.443129 0.241083
v 1.529082 0.001129 0.577855
v 1.529082 0.443129 0.577855
v 1.865854 0.001129 0.291589
v 1.865854 0.443129 0.291589
v 1.579588 0.001129 -0.045183
v 1.579588 0.443129 -0.045183
v 2.019983 0.001129 -0.419531
v 2.019983 0.443129 -0.419531
v 2.306249 0.001129 -0.082759
v 2.306249 0.443129 -0.082759
v 2.643022 0.001129 -0.369025
v 2.643022 0.443129 -0.369025
v 2.356756 0.001129 -0.705797
v 2.356756 0.443129 -0.705797
v 2.797151 0.001129 -1.080145
v 2.797151 0.443129 -1.080145
v 3.083417 0.001129 -0.743372
v 3.083417 0.443129 -0.743372
v 3.420189 0.001129 -1.029638
v 3.420189 0.443129 -1.029638
v 3.133923 0.001129 -1.366411
v 3.133923 0.443129 -1.366411
v 3.574318 0.001129 -1.740759
v 3.574318 0.443129 -1.740759
v 3.860584 0.001129 -1.403986
v 3.860584 0.443129 -1.403986
v 4.197357 0.001129 -1.690252
v 4.197357 0.443129 -1.690252
v 3.911091 0.001129 -2.027025
v 3.911091 0.443129 -2.027025
v 4.351486 0.001129 -2.401373
v 4.351486 0.443129 -2.401373
v 4.637752 0.001129 -2.064600
v 4.637752 0.443129 -2.064600
v 4.974524 0.001129 -2.350866
v 4.974524 0.443129 -2.350866
v 4.688258 0.001129 -2.687639
v 4.688258 0.443129 -2.687639
v 5.128653 0.001129 -3.061986
v 5.128653 0.443129 -3.061986
v 5.414919 0.001129 -2.725214
v 5.414919 0.443129 -2.725214
v 5.751692 0.001129 -3.011480
v 5.751692 0.443129 -3.011480
v 5.465426 0.001129 -3.348252
v 5.465426 0.443129 -3.348252
v 5.905821 0.001129 -3.722600
v 5.905821 0.443129 -3.722600
v 6.192087 0.001129 -3.385828
v 6.192087 0.443129 -3.385828
v 6.528860 0.001129 -3.672094
v 6.528860 0.443129 -3.672094
v 6.242594 0.001129 -4.008866
v 6.242594 0.443129 -4.008866
v 6.682988 0.001129 -4.383214
v 6.682988 0.443129 -4.383214
v 6.969254 0.001129 -4.046442
v 6.969254 0.443129 -4.046442
v 7.306027 0.001129 -4.332708
v 7.306027 0.443129 -4.332708
v 7.019761 0.001129 -4.669480
v 7.019761 0.443129 -4.669480
v 7.460156 0.001129 -5.043828
v 7.460156 0.443129 -5.043828
v 7.746422 0.001129 -4.707055
v 7.746422 0.443129 -4.707055
v 8.083195 0.001129 -4.993321
v 8.083195 0.443129 -4.993321
v 7.796929 0.001129 -5.330094
v 7.796929 0.443129 -5.330094
v 8.237324 0.001129 -5.704442
v 8.237324 0.443129 -5.704442
v 8.523590 0.001129 -5.367669
v 8.523590 0.443129 -5.367669
v 8.860362 0.001129 -5.653935
v 8.860362 0.443129 -5.653935
v 8.574096 0.001129 -5.990708
v 8.574096 0.443129 -5.990708
v 9.014491 0.001129 -6.365056
v 9.014491 0.443129 -6.365056
v 9.300757 0.001129 -6.028283
v 9.300757 0.443129 -6.028283
v 9.637530 0.001129 -6.314549
v 9.637530 0.443129 -6.314549
v 9.351264 0.001129 -6.651322
v 9.351264 0.443129 -6.651322
# 200 vertices

vn -0.761928 0.000000 0.647661
vn 0.647661 0.000000 0.761929
vn 0.761930 0.000000 -0.647660
vn 0.761930 0.000000 -0.647660
vn -0.647661 0.000000 -0.761929
vn 0.000000 1.000000 0.000000
vn 0.000000 1.000000 0.000000
vn 0.000000 -1.000000 0.000000
vn -0.761929 0.000000 0.647661
vn 0.761929 0.000000 -0.647661
vn 0.761929 0.000000 -0.647661
vn -0.647661 0.000000 -0.761929
vn -0.761930 0.000000 0.647660
vn 0.647660 0.000000 0.761930
vn 0.761929 0.000000 -0.647661
vn 0.761929 0.000000 -0.647661
vn -0.761929 0.000000 0.647660
vn 0.647661 0.000000 0.761928
vn -0.647660 0.000000 -0.761929
vn -0.761929 0.000000 0.647660
vn 0.647661 0.000000 0.761929
vn 0.761929 0.000000 -0.647661
vn 0.761929 0.000000 -0.647661
vn -0.761929 0.000000 0.647661
vn -0.761929 0.000000 0.647661
vn 0.761929 0.000000 -0.647660
vn 0.761929 0.000000 -0.647660
vn -0.647661 0.000000 -0.761929
vn -0.761929 0.000000 0.647661
vn -0.761929 0.000000 0.647660
vn 0.647661 0.000000 0.761929
vn 0.647661 0.000000 0.761929
vn 0.761929 0.000000 -0.647661
vn 0.761929 0.000000 -0.647661
vn -0.647660 0.000000 -0.761929
vn -0.761929 0.000000 0.647661
vn -0.761929 0.000000 0.647661
vn 0.647661 0.000000 0.761929
vn 0.761929 0.000000 -0.647661
vn 0.761929 0.000000 -0.647661
vn -0.647661 0.000000 -0.761929
vn -0.647661 0.000000 -0.761929
vn 0.647661 0.000000 0.761929
vn 0.647661 0.000000 0.761929
vn -0.761929 0.000000 0.647661
vn 0.647661 0.000000 0.761929
vn 0.761929 0.000000 -0.647661
vn 0.761929 0.000000 -0.647661
vn -0.761929 0.000000 0.647661
vn 0.647661 0.000000 0.761929
vn -0.647661 0.000000 -0.761929
vn -0.761929 0.000000 0.647660
vn 0.647660 0.000000 0.761929
vn 0.761929 0.000000 -0.647661
vn 0.761929 0.000000 -0.647661
vn 0.647661 0.000000 0.761929
vn 0.761929 0.000000 -0.647660
vn 0.761929 0.000000 -0.647660
vn -0.647661 0.000000 -0.761929
vn -0.647660 0.000000 -0.761929
vn -0.761929 0.000000 0.647660
vn 0.647661 0.000000 0.761929
vn 0.647660 0.000000 0.761929
vn -0.647661 0.000000 -0.761929
vn 0.647661 0.000000 0.761929
vn -0.647660 0.000000 -0.761930
vn -0.647661 0.000000 -0.761928
vn 0.761928 0.000000 -0.647661
vn 0.761928 0.000000 -0.647661
vn 0.000000 -1.000000 0.000000
vn 0.761929 0.000000 -0.647661
# 71 normals

vt 0.000000 0.000000 0.000000
vt 0.000000 1.000000 0.000000
vt 1.000000 1.000000 0.000000
vt 1.000000 0.000000 0.000000
# 4 texture coordinates

o Cloner.2
usemtl default
f 4/3/1 2/2/1 1/1/1
f 6/3/2 4/2/2 3/1/2
f 8/3/3 6/2/4 5/1/3
f 2/3/5 8/2/5 7/1/5
f 6/3/6 8/2/7 2/1/6
f 3/3/8 1/2/8 7/1/8
f 12/3/9 10/2/9 9/1/9
f 14/3/2 12/2/2 11/1/2
f 16/3/10 14/2/11 13/1/10
f 10/3/12 16/2/12 15/1/12
f 14/3/6 16/2/7 10/1/6
f 11/3/8 9/2/8 15/1/8
f 20/3/9 18/2/9 17/1/9
f 22/3/2 20/2/2 19/1/2
f 24/3/10 22/2/11 21/1/10
f 18/3/12 24/2/12 23/1/12
f 22/3/6 24/2/7 18/1/6
f 19/3/8 17/2/8 23/1/8
f 28/3/13 26/2/13 25/1/13
f 30/3/14 28/2/14 27/1/14
f 32/3/15 30/2/16 29/1/15
f 26/3/12 32/2/12 31/1/12
f 30/3/6 32/2/7 26/1/6
f 27/3/8 25/2/8 31/1/8
f 36/3/9 34/2/9 33/1/9
f 38/3/2 36/2/2 35/1/2
f 40/3/10 38/2/11 37/1/10
f 34/3/12 40/2/12 39/1/12
f 38/3/6 40/2/7 34/1/6
f 35/3/8 33/2/8 39/1/8
f 44/3/9 42/2/9 41/1/9
f 46/3/2 44/2/2 43/1/2
f 48/3/10 46/2/11 45/1/10
f 42/3/12 48/2/12 47/1/12
f 46/3/6 48/2/7 42/1/6
f 43/3/8 41/2/8 47/1/8
f 52/3/17 50/2/17 49/1/17
f 54/3/18 52/2/18 51/1/18
f 56/3/10 54/2/11 53/1/10
f 50/3/19 56/2/19 55/1/19
f 54/3/6 56/2/7 50/1/6
f 51/3/8 49/2/8 55/1/8
f 60/3/20 58/2/20 57/1/20
f 62/3/21 60/2/21 59/1/21
f 64/3/22 62/2/23 61/1/22
f 58/3/12 64/2/12 63/1/12
f 62/3/6 64/2/7 58/1/6
f 59/3/8 57/2/8 63/1/8
f 68/3/24 66/2/24 65/1/24
f 70/3/2 68/2/2 67/1/2
f 72/3/10 70/2/11 69/1/10
f 66/3/19 72/2/19 71/1/19
f 70/3/6 72/2/7 66/1/6
f 67/3/8 65/2/8 71/1/8
f 76/3/25 74/2/25 73/1/25
f 78/3/2 76/2/2 75/1/2
f 80/3/26 78/2/27 77/1/26
f 74/3/28 80/2/28 79/1/28
f 78/3/6 80/2/7 74/1/6
f 75/3/8 73/2/8 79/1/8
f 84/3/29 82/2/30 81/1/29
f 86/3/31 84/2/32 83/1/31
f 88/3/33 86/2/34 85/1/33
f 82/3/35 88/2/35 87/1/35
f 86/3/6 88/2/7 82/1/6
f 83/3/8 81/2/8 87/1/8
f 92/3/36 90/2/37 89/1/36
f 94/3/38 92/2/38 91/1/38
f 96/3/39 94/2/40 93/1/39
f 90/3/41 96/2/42 95/1/41
f 94/3/6 96/2/7 90/1/6
f 91/3/8 89/2/8 95/1/8
f 100/3/9 98/2/9 97/1/9
f 102/3/43 100/2/44 99/1/43
f 104/3/10 102/2/11 101/1/10
f 98/3/41 104/2/42 103/1/41
f 102/3/6 104/2/7 98/1/6
f 99/3/8 97/2/8 103/1/8
f 108/3/45 106/2/45 105/1/45
f 110/3/46 108/2/46 107/1/46
f 112/3/47 110/2/48 109/1/47
f 106/3/12 112/2/12 111/1/12
f 110/3/6 112/2/7 106/1/6
f 107/3/8 105/2/8 111/1/8
f 116/3/49 114/2/49 113/1/49
f 118/3/50 116/2/50 115/1/50
f 120/3/47 118/2/48 117/1/47
f 114/3/51 120/2/51 119/1/51
f 118/3/6 120/2/7 114/1/6
f 115/3/8 113/2/8 119/1/8
f 124/3/52 122/2/52 121/1/52
f 126/3/50 124/2/50 123/1/50
f 128/3/33 126/2/34 125/1/33
f 122/3/5 128/2/5 127/1/5
f 126/3/6 128/2/7 122/1/6
f 123/3/8 121/2/8 127/1/8
f 132/3/29 130/2/30 129/1/29
f 134/3/53 132/2/53 131/1/53
f 136/3/54 134/2/55 133/1/54
f 130/3/28 136/2/28 135/1/28
f 134/3/6 136/2/7 130/1/6
f 131/3/8 129/2/8 135/1/8
f 140/3/25 138/2/25 137/1/25
f 142/3/56 140/2/56 139/1/56
f 144/3/57 142/2/58 141/1/57
f 138/3/59 144/2/60 143/1/59
f 142/3/6 144/2/7 138/1/6
f 139/3/8 137/2/8 143/1/8
f 148/3/61 146/2/61 145/1/61
f 150/3/62 148/2/63 147/1/62
f 152/3/22 150/2/23 149/1/22
f 146/3/12 152/2/12 151/1/12
f 150/3/6 152/2/7 146/1/6
f 147/3/8 145/2/8 151/1/8
f 156/3/9 154/2/9 153/1/9
f 158/3/2 156/2/2 155/1/2
f 160/3/26 158/2/27 157/1/26
f 154/3/64 160/2/64 159/1/64
f 158/3/6 160/2/7 154/1/6
f 155/3/8 153/2/8 159/1/8
f 164/3/20 162/2/20 161/1/20
f 166/3/65 164/2/65 163/1/65
f 168/3/10 166/2/11 165/1/10
f 162/3/12 168/2/12 167/1/12
f 166/3/6 168/2/7 162/1/6
f 163/3/8 161/2/8 167/1/8
f 172/3/1 170/2/1 169/1/1
f 174/3/2 172/2/2 171/1/2
f 176/3/10 174/2/11 173/1/10
f 170/3/66 176/2/66 175/1/66
f 174/3/6 176/2/7 170/1/6
f 171/3/8 169/2/8 175/1/8
f 180/3/9 178/2/9 177/1/9
f 182/3/2 180/2/2 179/1/2
f 184/3/26 182/2/27 181/1/26
f 178/3/64 184/2/64 183/1/64
f 182/3/6 184/2/7 178/1/6
f 179/3/8 177/2/8 183/1/8
f 188/3/9 186/2/9 185/1/9
f 190/3/2 188/2/2 187/1/2
f 192/3/3 190/2/4 189/1/3
f 186/3/67 192/2/67 191/1/67
f 190/3/6 192/2/7 186/1/6
f 187/3/8 185/2/8 191/1/8
f 196/3/9 194/2/9 193/1/9
f 198/3/14 196/2/14 195/1/14
f 200/3/68 198/2/69 197/1/68
f 194/3/12 200/2/12 199/1/12
f 198/3/6 200/2/7 194/1/6
f 195/3/8 193/2/8 199/1/8
f 3/4/1 4/3/1 1/1/1
f 5/4/2 6/3/2 3/1/2
f 7/4/3 8/3/3 5/1/3
f 1/4/5 2/3/5 7/1/5
f 4/4/6 6/3/6 2/1/6
f 5/4/70 3/3/8 7/1/8
f 11/4/9 12/3/9 9/1/9
f 13/4/2 14/3/2 11/1/2
f 15/4/10 16/3/10 13/1/10
f 9/4/12 10/3/12 15/1/12
f 12/4/6 14/3/6 10/1/6
f 13/4/70 11/3/8 15/1/8
f 19/4/9 20/3/9 17/1/9
f 21/4/2 22/3/2 19/1/2
f 23/4/10 24/3/10 21/1/10
f 17/4/12 18/3/12 23/1/12
f 20/4/6 22/3/6 18/1/6
f 21/4/70 19/3/8 23/1/8
f 27/4/13 28/3/13 25/1/13
f 29/4/14 30/3/14 27/1/14
f 31/4/15 32/3/15 29/1/15
f 25/4/12 26/3/12 31/1/12
f 28/4/6 30/3/6 26/1/6
f 29/4/70 27/3/8 31/1/8
f 35/4/9 36/3/9 33/1/9
f 37/4/2 38/3/2 35/1/2
f 39/4/10 40/3/10 37/1/10
f 33/4/12 34/3/12 39/1/12
f 36/4/6 38/3/6 34/1/6
f 37/4/70 35/3/8 39/1/8
f 43/4/9 44/3/9 41/1/9
f 45/4/2 46/3/2 43/1/2
f 47/4/10 48/3/10 45/1/10
f 41/4/12 42/3/12 47/1/12
f 44/4/6 46/3/6 42/1/6
f 45/4/70 43/3/8 47/1/8
f 51/4/17 52/3/17 49/1/17
f 53/4/18 54/3/18 51/1/18
f 55/4/10 56/3/10 53/1/10
f 49/4/19 50/3/19 55/1/19
f 52/4/6 54/3/6 50/1/6
f 53/4/70 51/3/8 55/1/8
f 59/4/20 60/3/20 57/1/20
f 61/4/21 62/3/21 59/1/21
f 63/4/22 64/3/22 61/1/22
f 57/4/12 58/3/12 63/1/12
f 60/4/6 62/3/6 58/1/6
f 61/4/70 59/3/8 63/1/8
f 67/4/24 68/3/24 65/1/24
f 69/4/2 70/3/2 67/1/2
f 71/4/10 72/3/10 69/1/10
f 65/4/19 66/3/19 71/1/19
f 68/4/6 70/3/6 66/1/6
f 69/4/70 67/3/8 71/1/8
f 75/4/25 76/3/25 73/1/25
f 77/4/2 78/3/2 75/1/2
f 79/4/26 80/3/26 77/1/26
f 73/4/28 74/3/28 79/1/28
f 76/4/6 78/3/6 74/1/6
f 77/4/70 75/3/8 79/1/8
f 83/4/30 84/3/29 81/1/29
f 85/4/32 86/3/31 83/1/31
f 87/4/33 88/3/33 85/1/33
f 81/4/35 82/3/35 87/1/35
f 84/4/6 86/3/6 82/1/6
f 85/4/70 83/3/8 87/1/8
f 91/4/37 92/3/36 89/1/36
f 93/4/38 94/3/38 91/1/38
f 95/4/39 96/3/39 93/1/39
f 89/4/42 90/3/41 95/1/41
f 92/4/6 94/3/6 90/1/6
f 93/4/70 91/3/8 95/1/8
f 99/4/9 100/3/9 97/1/9
f 101/4/44 102/3/43 99/1/43
f 103/4/10 104/3/10 101/1/10
f 97/4/42 98/3/41 103/1/41
f 100/4/6 102/3/6 98/1/6
f 101/4/70 99/3/8 103/1/8
f 107/4/45 108/3/45 105/1/45
f 109/4/46 110/3/46 107/1/46
f 111/4/71 112/3/47 109/1/47
f 105/4/12 106/3/12 111/1/12
f 108/4/6 110/3/6 106/1/6
f 109/4/70 107/3/8 111/1/8
f 115/4/49 116/3/49 113/1/49
f 117/4/50 118/3/50 115/1/50
f 119/4/71 120/3/47 117/1/47
f 113/4/51 114/3/51 119/1/51
f 116/4/6 118/3/6 114/1/6
f 117/4/70 115/3/8 119/1/8
f 123/4/52 124/3/52 121/1/52
f 125/4/50 126/3/50 123/1/50
f 127/4/33 128/3/33 125/1/33
f 121/4/5 122/3/5 127/1/5
f 124/4/6 126/3/6 122/1/6
f 125/4/70 123/3/8 127/1/8
f 131/4/30 132/3/29 129/1/29
f 133/4/53 134/3/53 131/1/53
f 135/4/54 136/3/54 133/1/54
f 129/4/28 130/3/28 135/1/28
f 132/4/6 134/3/6 130/1/6
f 133/4/70 131/3/8 135/1/8
f 139/4/25 140/3/25 137/1/25
f 141/4/56 142/3/56 139/1/56
f 143/4/57 144/3/57 141/1/57
f 137/4/60 138/3/59 143/1/59
f 140/4/6 142/3/6 138/1/6
f 141/4/70 139/3/8 143/1/8
f 147/4/61 148/3/61 145/1/61
f 149/4/63 150/3/62 147/1/62
f 151/4/22 152/3/22 149/1/22
f 145/4/12 146/3/12 151/1/12
f 148/4/6 150/3/6 146/1/6
f 149/4/70 147/3/8 151/1/8
f 155/4/9 156/3/9 153/1/9
f 157/4/2 158/3/2 155/1/2
f 159/4/26 160/3/26 157/1/26
f 153/4/64 154/3/64 159/1/64
f 156/4/6 158/3/6 154/1/6
f 157/4/70 155/3/8 159/1/8
f 163/4/20 164/3/20 161/1/20
f 165/4/65 166/3/65 163/1/65
f 167/4/10 168/3/10 165/1/10
f 161/4/12 162/3/12 167/1/12
f 164/4/6 166/3/6 162/1/6
f 165/4/70 163/3/8 167/1/8
f 171/4/1 172/3/1 169/1/1
f 173/4/2 174/3/2 171/1/2
f 175/4/10 176/3/10 173/1/10
f 169/4/66 170/3/66 175/1/66
f 172/4/6 174/3/6 170/1/6
f 173/4/70 171/3/8 175/1/8
f 179/4/9 180/3/9 177/1/9
f 181/4/2 182/3/2 179/1/2
f 183/4/26 184/3/26 181/1/26
f 177/4/64 178/3/64 183/1/64
f 180/4/6 182/3/6 178/1/6
f 181/4/70 179/3/8 183/1/8
f 187/4/9 188/3/9 185/1/9
f 189/4/2 190/3/2 187/1/2
f 191/4/3 192/3/3 189/1/3
f 185/4/67 186/3/67 191/1/67
f 188/4/6 190/3/6 186/1/6
f 189/4/70 187/3/8 191/1/8
f 195/4/9 196/3/9 193/1/9
f 197/4/14 198/3/14 195/1/14
f 199/4/68 200/3/68 197/1/68
f 193/4/12 194/3/12 199/1/12
f 196/4/6 198/3/6 194/1/6
f 197/4/70 195/3/8 199/1/8

