# WaveFront *.obj file (generated by Cinema 4D)

mtllib ./cube_model1.mtl

v 0.038122 2.237946 0.267411
v 0.038122 2.619946 0.267411
v 0.267411 2.237946 -0.038122
v 0.267411 2.619946 -0.038122
v -0.038122 2.237946 -0.267411
v -0.038122 2.619946 -0.267411
v -0.267411 2.237946 0.038122
v -0.267411 2.619946 0.038122
# 8 vertices

vn 0.799824 0.000000 0.600235
vn 0.600235 0.000000 -0.799824
vn 0.600235 0.000000 -0.799824
vn -0.799824 0.000000 -0.600235
vn -0.600235 0.000000 0.799824
vn 0.000000 1.000000 0.000000
vn 0.000000 -1.000000 0.000000
vn 0.000000 1.000000 0.000000
# 8 normals

vt 0.000000 0.000000 0.000000
vt 0.000000 1.000000 0.000000
vt 1.000000 1.000000 0.000000
vt 1.000000 0.000000 0.000000
# 4 texture coordinates

o Cube
usemtl default
f 4/3/1 2/2/1 1/1/1
f 6/3/2 4/2/3 3/1/2
f 8/3/4 6/2/4 5/1/4
f 2/3/5 8/2/5 7/1/5
f 6/3/6 8/2/6 2/1/6
f 3/3/7 1/2/7 7/1/7
f 3/4/1 4/3/1 1/1/1
f 5/4/2 6/3/2 3/1/2
f 7/4/4 8/3/4 5/1/4
f 1/4/5 2/3/5 7/1/5
f 4/4/8 6/3/6 2/1/6
f 5/4/7 3/3/7 7/1/7

