# WaveFront *.obj file (generated by Cinema 4D)

mtllib ./icosahedron.mtl

v 0.000000 0.094632 0.153117
v 0.000000 -0.094632 0.153117
v 0.153117 0.000000 0.094632
v 0.153117 0.000000 -0.094632
v 0.000000 0.094632 -0.153117
v 0.000000 -0.094632 -0.153117
v -0.153117 0.000000 -0.094632
v -0.153117 0.000000 0.094632
v 0.094632 0.153117 0.000000
v -0.094632 0.153117 0.000000
v -0.094632 -0.153117 0.000000
v 0.094632 -0.153117 0.000000
# 12 vertices

vn 0.000000 0.934172 0.356822
vn 0.577350 0.577350 0.577350
vn 0.934172 0.356822 0.000000
vn 0.577350 0.577350 -0.577350
vn 0.000000 0.934172 -0.356822
vn -0.577350 0.577350 -0.577350
vn -0.934172 0.356822 0.000000
vn -0.577350 0.577350 0.577350
vn 0.000000 -0.934172 0.356822
vn 0.577350 -0.577350 0.577350
vn 0.934172 -0.356822 0.000000
vn 0.577350 -0.577350 -0.577350
vn 0.000000 -0.934172 -0.356822
vn -0.577350 -0.577350 -0.577350
vn -0.934172 -0.356822 0.000000
vn -0.577350 -0.577350 0.577350
vn -0.356822 0.000000 0.934172
vn 0.356822 0.000000 0.934172
vn 0.356822 0.000000 -0.934172
vn -0.356822 0.000000 -0.934172
# 20 normals

vt 0.700000 0.307000 0.000000
vt 0.600000 0.134000 0.000000
vt 0.500000 0.307000 0.000000
vt 0.000000 1.000000 0.000000
vt 0.400000 0.134000 0.000000
vt 0.100000 1.000000 0.000000
vt 0.200000 0.827000 0.000000
vt 0.000000 0.827000 0.000000
vt 0.300000 1.000000 0.000000
vt 1.000000 0.480000 0.000000
vt 0.800000 0.480000 0.000000
vt 0.900000 0.653000 0.000000
vt 0.700000 0.653000 0.000000
vt 0.600000 0.480000 0.000000
vt 0.300000 0.653000 0.000000
vt 0.500000 0.653000 0.000000
vt 0.400000 0.480000 0.000000
vt 0.300000 0.307000 0.000000
vt 0.200000 0.480000 0.000000
vt 0.100000 0.654000 0.000000
vt 0.400000 0.827000 0.000000
vt 0.500000 1.000000 0.000000
vt 0.600000 0.827000 0.000000
# 23 texture coordinates

o Platonic
usemtl default
f 1/3/1 9/2/1 10/1/1
f 1/3/2 3/5/2 9/2/2
f 3/8/3 4/7/3 9/6/3
f 4/7/4 5/9/4 9/6/4
f 5/12/5 10/11/5 9/10/5
f 7/13/6 10/11/6 5/12/6
f 8/14/7 10/11/7 7/13/7
f 8/14/8 1/3/8 10/1/8
f 2/17/9 11/16/9 12/15/9
f 2/17/10 12/19/10 3/18/10
f 12/15/11 4/7/11 3/20/11
f 12/15/12 6/21/12 4/7/12
f 12/15/13 11/16/13 6/21/13
f 11/23/14 7/22/14 6/21/14
f 11/16/15 8/14/15 7/13/15
f 11/16/16 2/17/16 8/14/16
f 1/3/17 8/14/17 2/17/17
f 1/3/18 2/17/18 3/18/18
f 4/7/19 6/21/19 5/9/19
f 6/21/20 7/22/20 5/9/20

